<?xml version="1.0" encoding="UTF-8"?>
<!DOCTYPE svg PUBLIC "-//W3C//DTD SVG 1.1//EN" "http://www.w3.org/Graphics/SVG/1.1/DTD/svg11.dtd">
<!-- Creator: CorelDRAW 2021 (64 Bit) -->
<svg xmlns="http://www.w3.org/2000/svg" xml:space="preserve" width="65px" height="65px" version="1.1" style="shape-rendering:geometricPrecision; text-rendering:geometricPrecision; image-rendering:optimizeQuality; fill-rule:evenodd; clip-rule:evenodd"
viewBox="0 0 2.34 2.34"
 xmlns:xlink="http://www.w3.org/1999/xlink"
 xmlns:xodm="http://www.corel.com/coreldraw/odm/2003">
 <defs>
  <style type="text/css">
   <![CDATA[
    .fil0 {fill:none}
    .fil5 {fill:#FEFEFE;fill-rule:nonzero}
    .fil3 {fill:#22B3E8;fill-rule:nonzero}
    .fil2 {fill:#15BAE3;fill-rule:nonzero}
    .fil1 {fill:#394476;fill-rule:nonzero}
    .fil4 {fill:#39447B;fill-rule:nonzero}
   ]]>
  </style>
 </defs>
 <g id="Camada_x0020_1">
  <metadata id="CorelCorpID_0Corel-Layer"/>
  <rect class="fil0" width="2.34" height="2.34"/>
  <g id="_2545874963664">
   <g>
    <path class="fil1" d="M2.07 1.5c-0.01,0.02 -0.03,0.03 -0.05,0.03 -0.02,0 -0.03,-0.01 -0.04,-0.03 -0.02,-0.01 -0.02,-0.03 -0.02,-0.06 0,-0.02 0,-0.05 0.02,-0.06 0.01,-0.01 0.02,-0.02 0.04,-0.02 0.02,0 0.04,0.01 0.05,0.02 0.01,0.01 0.02,0.04 0.02,0.06 0,0.03 -0.01,0.05 -0.02,0.06zm0.09 -0.06l0 0c0,-0.04 -0.01,-0.07 -0.03,-0.1 -0.03,-0.03 -0.06,-0.04 -0.11,-0.04 -0.04,0 -0.08,0.01 -0.1,0.04 -0.02,0.03 -0.03,0.06 -0.03,0.1 0,0.04 0.01,0.07 0.03,0.1 0.02,0.03 0.06,0.04 0.1,0.04 0.05,0 0.08,-0.01 0.11,-0.04 0.02,-0.02 0.03,-0.06 0.03,-0.1z"/>
    <path class="fil1" d="M1.51 1.47c0,0.02 0,0.04 -0.02,0.05 -0.01,0.01 -0.02,0.01 -0.04,0.01 -0.01,0 -0.02,0 -0.02,0 -0.01,-0.01 -0.01,-0.02 -0.01,-0.03 0,-0.01 0,-0.02 0.01,-0.03 0.01,0 0.02,-0.01 0.03,-0.01l0.02 0c0.01,0 0.01,-0.01 0.02,-0.01 0,0 0.01,0 0.01,0l0 0.02zm0.04 -0.15c-0.02,-0.01 -0.05,-0.02 -0.08,-0.02 -0.05,0 -0.08,0.01 -0.1,0.04 -0.01,0.01 -0.01,0.03 -0.02,0.05l0.07 0c0,-0.01 0.01,-0.01 0.01,-0.02 0.01,-0.01 0.02,-0.01 0.04,-0.01 0.01,0 0.02,0 0.03,0 0.01,0.01 0.01,0.02 0.01,0.03 0,0.01 0,0.01 -0.01,0.02 -0.01,0 -0.02,0 -0.03,0l-0.02 0.01c-0.03,0 -0.05,0 -0.07,0.01 -0.02,0.02 -0.03,0.04 -0.03,0.07 0,0.03 0,0.05 0.02,0.06 0.02,0.02 0.04,0.02 0.06,0.02 0.15,0.01 0.15,-0.08 0.15,-0.09l0 -0.11c0,-0.03 -0.01,-0.05 -0.03,-0.06z"/>
    <path class="fil1" d="M1.2 1.36c0.02,0 0.03,0.01 0.04,0.02 0,0 0.01,0.01 0.01,0.02l0.07 0c0,-0.03 -0.01,-0.06 -0.04,-0.08 -0.02,-0.01 -0.05,-0.02 -0.08,-0.02 -0.05,0 -0.08,0.01 -0.1,0.04 -0.03,0.03 -0.04,0.06 -0.04,0.11 0,0.04 0.01,0.07 0.04,0.1 0.02,0.02 0.05,0.03 0.1,0.03 0.04,0 0.08,-0.01 0.1,-0.04 0.01,-0.02 0.02,-0.04 0.02,-0.06l-0.07 0c0,0.01 -0.01,0.02 -0.02,0.03 0,0.01 -0.02,0.02 -0.03,0.02 -0.03,0 -0.04,-0.02 -0.05,-0.04 -0.01,-0.01 -0.01,-0.03 -0.01,-0.04 0,-0.03 0,-0.04 0.01,-0.05 0.01,-0.03 0.02,-0.04 0.05,-0.04z"/>
    <path class="fil1" d="M1.04 1.3c-0.15,0 -0.14,0.14 -0.14,0.14l0 0.14 0.07 0 0 -0.13c0,-0.02 0,-0.04 0.01,-0.05 0,-0.02 0.02,-0.03 0.05,-0.03 0,0 0.01,0 0.01,0 0,0 0.01,0 0.01,0l0 -0.07c0,0 0,0 0,0 0,0 -0.01,0 -0.01,0z"/>
    <path class="fil1" d="M0.69 1.37c0.01,-0.01 0.02,-0.01 0.04,-0.01 0.02,0 0.03,0 0.04,0.01 0.01,0.01 0.02,0.03 0.02,0.05l-0.12 0c0,-0.02 0.01,-0.04 0.02,-0.05zm0.09 0.14c0,0 0,0 -0.01,0.01 -0.01,0 -0.02,0.01 -0.04,0.01 -0.01,0 -0.02,-0.01 -0.03,-0.01 -0.02,-0.01 -0.03,-0.03 -0.03,-0.06l0.19 0c0,-0.02 0,-0.04 0,-0.05 0,-0.02 -0.01,-0.04 -0.02,-0.06 -0.01,-0.01 -0.03,-0.03 -0.05,-0.04 -0.02,0 -0.04,-0.01 -0.06,-0.01 -0.04,0 -0.07,0.01 -0.1,0.04 -0.02,0.02 -0.03,0.06 -0.03,0.11 0,0.04 0.01,0.08 0.04,0.1 0.03,0.02 0.06,0.04 0.09,0.04 0.05,0 0.08,-0.02 0.1,-0.04 0.02,-0.02 0.03,-0.03 0.03,-0.04l-0.08 0z"/>
    <path class="fil1" d="M0.57 1.58l-0.06 0 0 -0.16c0,-0.02 -0.01,-0.05 -0.05,-0.05 -0.03,0 -0.05,0.02 -0.05,0.05l0 0.16 -0.07 0 0 -0.16c0,-0.02 0,-0.05 -0.04,-0.05 -0.03,0 -0.05,0.02 -0.05,0.05l0 0.16 -0.07 0 0 -0.16c0,-0.07 0.05,-0.12 0.12,-0.12 0.03,0 0.06,0.01 0.08,0.04 0.02,-0.03 0.05,-0.04 0.08,-0.04 0.07,0 0.11,0.05 0.11,0.12l0 0.16z"/>
    <path class="fil1" d="M1.78 1.5c-0.01,0.02 -0.02,0.03 -0.04,0.03 -0.02,0 -0.04,-0.01 -0.05,-0.03 -0.01,-0.01 -0.01,-0.03 -0.01,-0.06 0,-0.02 0,-0.04 0.01,-0.05 0.01,-0.02 0.03,-0.03 0.05,-0.03 0.01,0 0.02,0.01 0.03,0.02 0.02,0.01 0.03,0.03 0.03,0.07 0,0.02 -0.01,0.04 -0.02,0.05zm0.09 -0.28c0,0 -0.08,-0.01 -0.08,0.05l0 0.07c0,-0.01 -0.01,-0.02 -0.03,-0.03 -0.01,-0.01 -0.02,-0.01 -0.04,-0.01 -0.03,0 -0.06,0.01 -0.08,0.04 -0.03,0.03 -0.04,0.06 -0.04,0.11 0,0.04 0.02,0.07 0.04,0.1 0.02,0.02 0.06,0.03 0.1,0.03 0.13,0 0.13,-0.11 0.13,-0.11l0 -0.25z"/>
   </g>
   <g>
    <path class="fil2" d="M0.81 1.84c0,-0.03 0,-0.05 -0.01,-0.07 -0.01,-0.01 -0.03,-0.02 -0.05,-0.02 -0.02,0 -0.03,0.01 -0.04,0.02 -0.01,0.02 -0.02,0.04 -0.02,0.07 0,0.02 0.01,0.04 0.02,0.05 0.01,0.02 0.02,0.03 0.04,0.03 0.02,0 0.04,-0.01 0.05,-0.03 0.01,-0.01 0.01,-0.03 0.01,-0.05zm-0.12 0.19c0,0.01 0,0.01 -0.01,0.02 0,0.01 -0.01,0.01 -0.02,0.01l-0.04 0 0 -0.24c0,-0.05 0.02,-0.08 0.05,-0.1 0.01,-0.01 0.04,-0.03 0.09,-0.03 0.03,0 0.07,0.02 0.09,0.04 0.02,0.03 0.03,0.06 0.03,0.1 0,0.05 -0.01,0.08 -0.03,0.11 -0.02,0.02 -0.04,0.04 -0.08,0.04 -0.01,0 -0.03,-0.01 -0.04,-0.01 -0.02,-0.01 -0.03,-0.02 -0.04,-0.04l0 0.1z"/>
    <path class="fil2" d="M1.24 1.84c0,0.04 0.01,0.07 0.04,0.07 0.02,0.01 0.04,0 0.06,-0.02 0,0 0.01,-0.01 0.01,-0.03 0,-0.02 0,-0.03 0,-0.05 0,-0.01 -0.01,-0.03 -0.02,-0.04 -0.01,-0.01 -0.02,-0.02 -0.04,-0.02 -0.02,0 -0.03,0.01 -0.04,0.03 -0.01,0.01 -0.01,0.03 -0.01,0.06zm0.11 0.11l0 -0.01c-0.01,0.01 -0.03,0.03 -0.05,0.03 -0.02,0.01 -0.04,0 -0.06,0 -0.02,-0.01 -0.04,-0.03 -0.05,-0.05 -0.02,-0.02 -0.02,-0.05 -0.02,-0.09 0,-0.04 0.01,-0.07 0.02,-0.1 0.02,-0.03 0.06,-0.04 0.1,-0.04 0.04,0 0.06,0.01 0.09,0.03 0.02,0.02 0.04,0.05 0.04,0.1l0 0.14c0,0.05 -0.03,0.13 -0.13,0.12 -0.06,0 -0.1,-0.03 -0.12,-0.08l0.08 0c0,0.01 0.01,0.01 0.02,0.02 0.01,0 0.02,0 0.03,0 0.02,0 0.03,-0.01 0.04,-0.02 0,-0.01 0.01,-0.03 0.01,-0.05z"/>
    <path class="fil2" d="M1.07 1.86c0,0.03 -0.01,0.04 -0.02,0.05 -0.01,0.01 -0.03,0.02 -0.04,0.02 -0.01,0 -0.02,-0.01 -0.03,-0.01 0,-0.01 -0.01,-0.02 -0.01,-0.03 0,-0.01 0.01,-0.02 0.02,-0.03 0.01,0 0.02,0 0.03,-0.01l0.02 0c0.01,0 0.01,0 0.02,-0.01 0,0 0.01,0 0.01,0l0 0.02zm0.04 -0.15c-0.03,-0.01 -0.05,-0.02 -0.08,-0.02 -0.05,0 -0.08,0.02 -0.1,0.04 -0.01,0.01 -0.02,0.03 -0.02,0.06l0.07 0c0,-0.01 0,-0.02 0.01,-0.03 0.01,-0.01 0.02,-0.01 0.03,-0.01 0.02,0 0.03,0 0.04,0.01 0.01,0 0.01,0.01 0.01,0.02 0,0.01 0,0.01 -0.02,0.02 0,0 -0.01,0 -0.02,0.01l-0.03 0c-0.02,0 -0.05,0.01 -0.06,0.02 -0.02,0.01 -0.04,0.03 -0.04,0.07 0,0.02 0.01,0.04 0.03,0.06 0.01,0.01 0.03,0.02 0.06,0.02 0.15,0 0.15,-0.08 0.15,-0.1l0 -0.1c0,-0.04 -0.01,-0.06 -0.03,-0.07z"/>
    <path class="fil2" d="M1.63 1.9c-0.01,0.01 -0.03,0.02 -0.05,0.02 -0.02,0 -0.03,-0.01 -0.04,-0.02 -0.01,-0.02 -0.02,-0.04 -0.02,-0.07 0,-0.02 0.01,-0.04 0.02,-0.06 0.01,-0.01 0.02,-0.02 0.04,-0.02 0.02,0 0.04,0.01 0.05,0.02 0.01,0.02 0.02,0.04 0.02,0.06 0,0.03 -0.01,0.05 -0.02,0.07zm0.06 -0.17c-0.03,-0.03 -0.06,-0.04 -0.11,-0.04 -0.04,0 -0.08,0.01 -0.1,0.04 -0.02,0.03 -0.03,0.06 -0.03,0.1 0,0.04 0.01,0.08 0.03,0.1 0.02,0.03 0.06,0.05 0.1,0.05 0.05,0 0.08,-0.02 0.11,-0.05 0.02,-0.02 0.03,-0.06 0.03,-0.1 0,-0.04 -0.01,-0.07 -0.03,-0.1z"/>
   </g>
   <g>
    <path class="fil3" d="M1.17 0.33c-0.33,0 -0.6,0.17 -0.6,0.38 0,0.22 0.27,0.39 0.6,0.39 0.34,0 0.6,-0.17 0.6,-0.39 0,-0.21 -0.26,-0.38 -0.6,-0.38z"/>
    <path class="fil4" d="M1.17 1.1c-0.33,0 -0.6,-0.17 -0.6,-0.39 0,-0.21 0.27,-0.38 0.6,-0.38 0.34,0 0.6,0.17 0.6,0.38 0,0.22 -0.26,0.39 -0.6,0.39zm0 -0.79c-0.34,0 -0.62,0.18 -0.62,0.4 0,0.01 0,0.03 0,0.03 0,0.24 0.24,0.43 0.62,0.43 0.39,0 0.63,-0.19 0.63,-0.43 0,-0.01 0,-0.01 0,-0.03 0,-0.22 -0.28,-0.4 -0.63,-0.4z"/>
    <path class="fil5" d="M1.77 0.68l-0.01 0.01 -0.08 -0.01 -0.16 0.02 -0.14 0.05 0 -0.21 0.04 -0.09 0.03 0 0.03 -0.01 0.06 -0.02 0.04 -0.01 0.02 0 -0.01 -0.04 -0.02 -0.01 0.01 -0.03 -0.03 -0.02 -0.06 -0.04 -0.01 0 -0.06 0.05 -0.07 0.08 -0.08 0.15 -0.1 0.24 -0.05 -0.09 -0.13 -0.28 -0.02 -0.02 -0.09 -0.11 -0.04 -0.02 -0.02 0.01 -0.06 0.05 0 0.03 -0.02 0.01 -0.01 0.02 0.01 0.02 0.05 0.01 0.12 0.03 0.01 0.01 0.01 0.03 0.03 0.09 0 0.17 -0.02 0 -0.05 -0.02 -0.15 -0.04 -0.08 0 -0.09 0c0,0.14 0.07,0.21 0.07,0.21l0.03 -0.02 0.14 0.03 0.22 -0.01 0.11 -0.02 0.03 -0.04 0.01 0.04 0.12 0.03 0.16 0 0.14 -0.02 0.06 -0.01 0.04 0.02c0.08,-0.08 0.07,-0.22 0.07,-0.22z"/>
    <path class="fil4" d="M1.15 0.85c-0.02,0.03 -0.05,0.04 -0.08,0.04 -0.01,0 -0.03,0 -0.04,0 -0.05,0.01 -0.11,0.01 -0.16,0.01l0 0c-0.06,-0.01 -0.12,-0.01 -0.17,-0.02 -0.03,-0.01 -0.04,-0.01 -0.05,0.01 -0.01,0 -0.02,0.01 -0.02,0.02 0,0 0.01,0 0.01,0 0,0.01 0.01,-0.01 0.02,-0.01 0.01,-0.01 0.02,-0.02 0.04,-0.01 0.05,0.01 0.11,0.02 0.17,0.02l0 0c0.02,0 0.03,0 0.05,0 0.04,0 0.07,0 0.11,0 0.01,0 0.03,-0.01 0.04,-0.01 0.04,0 0.07,0 0.1,-0.04 0,0 0,-0.01 -0.01,-0.01 0,0 0,0 -0.01,0z"/>
    <path class="fil4" d="M1.78 0.68c-0.01,0 -0.01,0 -0.01,0 -0.01,0 -0.02,0 -0.03,0 -0.01,-0.01 -0.02,-0.01 -0.03,-0.01 -0.09,0.01 -0.18,0.03 -0.28,0.06 -0.02,0 -0.03,0.01 -0.04,0.01 0,0 0,0 -0.01,0 0,0 0,-0.01 0,-0.02 0.01,-0.04 0.01,-0.09 0.01,-0.13 0,-0.04 0.01,-0.08 0.02,-0.12 0.01,-0.01 0.01,-0.02 0.02,-0.02 0.02,0.01 0.05,0 0.06,-0.01 0.03,-0.01 0.05,-0.02 0.08,-0.02 0.02,0 0.03,-0.01 0.03,-0.03 0.01,-0.02 -0.01,-0.03 -0.02,-0.03 0,0 0,0 0,0 0,-0.01 0,-0.02 0,-0.03 0.01,0 0,0 0,0 -0.01,-0.02 -0.03,-0.03 -0.05,-0.04 -0.01,-0.01 -0.01,-0.01 -0.02,-0.02 -0.02,-0.01 -0.03,-0.01 -0.05,0.01 -0.08,0.06 -0.15,0.15 -0.19,0.27 -0.01,0.02 -0.02,0.04 -0.03,0.06 -0.02,0.06 -0.05,0.12 -0.08,0.17l-0.01 -0.04c-0.02,-0.03 -0.03,-0.07 -0.05,-0.1 -0.01,-0.02 -0.01,-0.03 -0.02,-0.05 -0.02,-0.05 -0.04,-0.1 -0.07,-0.15 -0.02,-0.05 -0.06,-0.09 -0.1,-0.13 -0.02,-0.01 -0.03,-0.02 -0.04,-0.03 -0.01,-0.01 -0.02,-0.02 -0.03,-0.02l0 0c-0.01,0 -0.01,0.01 -0.02,0.01 0,0 -0.01,0.01 -0.02,0.01 -0.01,0.01 -0.03,0.02 -0.04,0.04 -0.01,0.01 -0.01,0.03 -0.01,0.04 -0.01,0 -0.02,0.01 -0.03,0.03 0,0 0,0.01 0,0.01 0,0 0.01,0 0.01,0 0,0.01 0.01,0.02 0.02,0.02 0.02,0 0.04,0.01 0.07,0.02 0.02,0 0.05,0.01 0.07,0.01 0.02,0 0.02,0.01 0.03,0.02 0,0 0,0 0,0.01 0.01,0.02 0.02,0.04 0.02,0.06 0,0.03 0,0.06 0,0.1 0,0.03 0,0.07 0.01,0.1 -0.01,0.01 -0.02,0 -0.03,0 0,-0.01 0,-0.01 -0.01,-0.01 -0.07,-0.02 -0.15,-0.05 -0.24,-0.05 0,0 0,0 0,0 -0.02,0 -0.05,0 -0.07,0l-0.03 0c0,0 -0.01,0 -0.01,0.01 0,0 0.01,0 0.01,0l0.03 0c0.02,0 0.05,0 0.07,0 0,0 0,0 0,0 0.08,0 0.16,0.03 0.24,0.05 0,0.01 0,0.01 0.01,0.01 0,0 0.01,0.01 0.02,0.01 0.01,0 0.01,0 0.02,-0.01 0,0 0,0 0,-0.01 -0.01,-0.03 0,-0.07 0,-0.1 0,-0.04 0,-0.07 -0.01,-0.1 0,-0.02 -0.01,-0.05 -0.02,-0.07 0,0 0,0 0,-0.01 -0.01,-0.02 -0.02,-0.02 -0.04,-0.02 -0.02,0 -0.04,-0.01 -0.07,-0.02 -0.02,-0.01 -0.04,-0.01 -0.07,-0.02 0,0 -0.01,0 -0.01,0 0,-0.01 0,-0.01 -0.01,-0.01 0.01,-0.01 0.02,-0.02 0.03,-0.02 0,0 0,0 0,0 0,0 0,0 0,0 0.02,0.01 0.05,0.04 0.08,0.02 0.01,0.01 0.03,0.02 0.04,0.03 0,0 0,0 0.01,0 0,0 0,0 0,0 0,0 0,-0.01 0,-0.01 -0.02,-0.01 -0.04,-0.03 -0.05,-0.05 -0.01,-0.01 -0.01,-0.02 -0.02,-0.02 0,-0.01 0,-0.01 -0.01,0 0,0 0,0 0,0.01 0.01,0 0.01,0.01 0.02,0.02 0,0 0,0 0,0 -0.02,0.02 -0.04,0.01 -0.06,-0.01 -0.01,-0.01 -0.01,-0.02 0,-0.03 0.01,-0.02 0.02,-0.02 0.04,-0.03 0.01,-0.01 0.01,-0.01 0.02,-0.02 0.01,0 0.02,0 0.03,0 0.01,0.02 0.02,0.03 0.04,0.04 0.04,0.04 0.08,0.08 0.1,0.13 0.02,0.05 0.05,0.1 0.07,0.14 0,0.02 0.01,0.04 0.02,0.06 0.01,0.03 0.03,0.06 0.04,0.1l0.02 0.04c0,0 0.01,0.01 0.01,0.01 -0.01,0.01 -0.01,0.02 0,0.04 0.01,0.02 0.02,0.04 0.04,0.05 0.02,0.01 0.04,0.01 0.05,0.01l0.01 0c0.06,0.01 0.11,0.01 0.16,0.01 0.02,0 0.04,0 0.06,0 0.05,0 0.1,-0.01 0.15,-0.02 0.03,-0.01 0.04,0 0.05,0.02 0.01,0 0.02,0.01 0.02,0 0,-0.01 0,-0.01 -0.01,-0.01 -0.01,-0.02 -0.03,-0.03 -0.06,-0.02 -0.05,0.01 -0.1,0.01 -0.15,0.02 -0.07,0 -0.14,0 -0.21,-0.01l-0.01 0c-0.02,0 -0.04,-0.01 -0.05,-0.01 -0.02,-0.01 -0.03,-0.03 -0.04,-0.05 0,-0.01 0,-0.02 0,-0.03 0.03,-0.06 0.06,-0.12 0.08,-0.18 0.01,-0.02 0.02,-0.05 0.03,-0.07 0.05,-0.11 0.11,-0.2 0.19,-0.26 0.01,-0.01 0.02,-0.02 0.03,-0.01 0.01,0.01 0.02,0.01 0.02,0.02 0.02,0.01 0.04,0.02 0.05,0.03 -0.01,0.03 -0.02,0.04 -0.03,0.05 -0.01,0 -0.02,0 -0.04,-0.01 0.01,-0.01 0.01,-0.02 0.02,-0.03 0,-0.01 0,-0.01 0,-0.01 0,0 -0.01,0 -0.01,0 -0.02,0.03 -0.04,0.06 -0.07,0.08 -0.01,0 -0.01,0.01 0,0.01 0,0 0,0 0,0 0,0 0,0 0,0 0.02,-0.01 0.04,-0.02 0.05,-0.03 0.02,0 0.04,0.01 0.06,0 0.01,-0.01 0.01,-0.01 0.02,-0.02 0,0 0,0 0,0 0.02,0.01 0.02,0.01 0.02,0.02 0,0.01 -0.01,0.02 -0.02,0.02 -0.03,0 -0.05,0.01 -0.08,0.02 -0.02,0.01 -0.04,0.01 -0.05,0.01 -0.03,0 -0.03,0.01 -0.04,0.02 -0.01,0.04 -0.03,0.09 -0.03,0.13 0,0.04 0,0.09 0,0.13 0,0.01 0,0.02 0,0.03 0,0 0,0 0,0 -0.01,0 -0.01,0.01 -0.01,0.01 0,0 0,0 0,0.01 0,0 0.01,0 0.01,0 0,0 0,0 0,0 0,0 0,-0.01 0,-0.01 0.01,0 0.01,0 0.01,0 0,0 0,0 0,0 0.01,0 0.01,-0.01 0.02,-0.01 0.01,0 0.02,-0.01 0.03,-0.01 0.1,-0.03 0.19,-0.05 0.28,-0.05 0.01,0 0.01,0 0.02,0 0.01,0 0.03,0.01 0.04,0 0.01,0 0.01,-0.01 0.01,-0.01z"/>
   </g>
  </g>
 </g>
</svg>
